<?xml version="1.0" encoding="UTF-8" standalone="no"?>
<svg
   xmlns:dc="http://purl.org/dc/elements/1.1/"
   xmlns:cc="http://creativecommons.org/ns#"
   xmlns:rdf="http://www.w3.org/1999/02/22-rdf-syntax-ns#"
   xmlns:svg="http://www.w3.org/2000/svg"
   xmlns="http://www.w3.org/2000/svg"
   xmlns:sodipodi="http://sodipodi.sourceforge.net/DTD/sodipodi-0.dtd"
   xmlns:inkscape="http://www.inkscape.org/namespaces/inkscape"
   inkscape:version="1.0 (4035a4fb49, 2020-05-01)"
   sodipodi:docname="RealPlayer 2004.svg"
   version="1.1"
   id="svg2"
   height="238.99541"
   width="952.56708">
  <metadata
     id="metadata15">
    <rdf:RDF>
      <cc:Work
         rdf:about="">
        <dc:format>image/svg+xml</dc:format>
        <dc:type
           rdf:resource="http://purl.org/dc/dcmitype/StillImage" />
        <dc:title></dc:title>
      </cc:Work>
    </rdf:RDF>
  </metadata>
  <defs
     id="defs13">
	
	
	
	
	
	
	
	
	
	
	
	
	
	
	
	
	
	
	
</defs>
  <sodipodi:namedview
     inkscape:current-layer="layer1"
     inkscape:window-maximized="1"
     inkscape:window-y="-8"
     inkscape:window-x="-8"
     inkscape:cy="123.585"
     inkscape:cx="529.13604"
     inkscape:zoom="1.1372114"
     fit-margin-bottom="0"
     fit-margin-right="0"
     fit-margin-left="0"
     fit-margin-top="0"
     showgrid="false"
     id="namedview11"
     inkscape:window-height="705"
     inkscape:window-width="1366"
     inkscape:pageshadow="2"
     inkscape:pageopacity="0"
     guidetolerance="10"
     gridtolerance="10"
     objecttolerance="10"
     borderopacity="1"
     bordercolor="#666666"
     pagecolor="#ffffff" />
  <g
     transform="translate(-421.7581,-130.20824)"
     id="layer1"
     inkscape:groupmode="layer"
     inkscape:label="Layer 1">
    <path
       d="m 719.05261,173.59051 c -20.43165,-4.19828 -35.15364,-1.00759 -42.87848,1.17552 -1.2315,0.33586 -1.56736,0.5038 -2.91081,-0.22391 -19.70395,-10.24381 -49.03596,-15.84152 -89.11558,-15.84152 -53.62609,0 -121.47037,23.39843 -121.47037,64.26174 0,34.87375 61.6868,63.98185 140.2227,63.98185 1.39943,0.056 3.75047,0.61575 1.45541,5.03794 -4.08633,7.89278 -7.66887,14.05026 -8.90036,15.8975 -2.40702,3.75047 -0.33587,7.1091 9.34818,1.45541 0,0 50.37941,-25.58155 64.20576,-33.0265 0.22391,-0.16794 1.51138,-0.72771 2.6869,-0.55977 12.81876,1.62333 32.80259,1.34345 44.22193,-1.9592 1.17552,-0.33587 0.78368,0.50379 0.61575,0.61574 -10.97152,8.95634 -24.46201,17.35291 -39.23997,26.02937 -13.9383,8.22863 -107.14022,64.70955 -113.52161,68.12416 -4.81403,2.63092 -6.49334,-3.41461 -4.42219,-6.88519 2.23908,-3.58253 12.03508,-21.88705 20.59958,-36.38513 2.6869,-4.47817 9.23623,-11.81117 -1.9592,-11.41933 -32.52271,1.11954 -156.23215,-26.925 -156.23215,-93.08996 0,-56.20104 86.76454,-90.57099 161.77389,-90.57099 27.70867,0 98.96755,8.73243 136.80809,42.31871 1.34345,1.23149 -1.11954,1.06356 -1.28747,1.06356"
       class="ps01 ps22"
       id="path470"
       style="font-size:7.5px;font-family:fnt1;letter-spacing:0.075px;word-spacing:0;fill:#007cc2;fill-rule:nonzero;stroke:none" />
    <path
       d="m 862.63393,263.15391 h 38.96008 l 29.16408,-108.09183 h -39.01605 l -29.10811,108.09183"
       class="ps04 ps22"
       id="path472"
       style="font-size:7.5px;font-family:fnt1;letter-spacing:0.075px;word-spacing:0;fill:#221f1f;fill-rule:nonzero;stroke:none" />
    <path
       d="m 674.49482,215.23749 c 2.91081,-8.34059 9.85197,-13.2106 20.26372,-13.2106 9.90795,0 14.83393,4.70208 14.83393,10.63566 0,0.78367 -0.22391,1.84724 -0.39184,2.57494 z m 27.98856,25.35764 c -1.9592,2.6869 -6.88519,5.59771 -15.39371,5.59771 -12.20301,0 -15.95348,-6.99714 -15.95348,-15.33773 h 72.93819 c 1.79127,-4.81403 2.01518,-9.40416 2.01518,-13.65842 0,-24.68591 -27.42879,-34.42593 -50.09953,-34.42593 -25.46959,0 -61.35093,11.86715 -61.35093,47.91642 0,19.14418 14.61003,34.76179 50.88321,34.76179 44.16595,0 51.83482,-19.59199 54.40977,-24.85384 h -37.4487"
       class="ps05 ps22"
       id="path474"
       style="font-size:7.5px;font-family:fnt1;letter-spacing:0.075px;word-spacing:0;fill:#221f1f;fill-rule:evenodd;stroke:none" />
    <path
       d="m 642.41992,184.11421 c -3.52656,-0.89563 -7.27702,-1.17552 -13.77037,-1.17552 -10.07588,0 -22.83867,5.8776 -29.72385,14.21819 h -0.39184 l 3.35862,-12.25899 h -37.78455 l -21.10338,78.53591 h 39.01606 l 8.84438,-32.85857 c 4.53415,-16.45728 12.76279,-21.94304 29.33201,-21.94304 2.79886,0 5.76565,0.22391 8.67646,0.67173 l 13.54646,-25.18971"
       class="ps04 ps22"
       id="path476"
       style="font-size:7.5px;font-family:fnt1;letter-spacing:0.075px;word-spacing:0;fill:#221f1f;fill-rule:nonzero;stroke:none" />
    <path
       d="m 788.29631,240.53915 c 0,-5.76564 6.10151,-8.34059 12.59485,-8.78841 7.1091,-0.44781 14.38613,-1.06356 20.65556,-3.47058 -2.35104,11.64325 -7.66886,19.03223 -20.82349,19.03223 -6.32541,0 -12.42692,-1.34346 -12.42692,-6.77324 z M 852.67,253.46987 c 2.12714,-9.90795 11.97911,-39.07203 11.97911,-50.04355 0,-19.03222 -31.0673,-20.87947 -49.59573,-20.87947 -24.9658,0 -46.0132,4.87001 -52.11471,25.74948 h 36.60904 c 2.12713,-5.8776 7.66887,-8.00473 15.50567,-8.00473 5.93357,0 12.20301,1.34345 12.20301,6.77323 0,9.68405 -17.52084,8.50853 -28.54833,9.12427 -29.27604,1.62334 -49.37183,7.22105 -49.37183,27.98857 0,14.94589 15.56164,20.87946 33.08248,20.87946 11.41934,0 24.57396,-3.19069 31.45915,-9.51611 h 0.39184 c -0.16793,2.51897 -1.51139,7.55691 -1.51139,7.55691 h 37.28077 l 2.63092,-9.62806"
       class="ps05 ps22"
       id="path478"
       style="font-size:7.5px;font-family:fnt1;letter-spacing:0.075px;word-spacing:0;fill:#221f1f;fill-rule:evenodd;stroke:none" />
    <path
       d="m 1362.4839,263.37782 v -6.66128 h -2.5189 v -0.89563 h 5.9895 v 0.89563 h -2.463 v 6.66128 h -1.0076"
       class="ps04 ps22"
       id="path480"
       style="font-size:7.5px;font-family:fnt1;letter-spacing:0.075px;word-spacing:0;fill:#221f1f;fill-rule:nonzero;stroke:none" />
    <path
       d="m 1366.9621,263.37782 v -7.55691 h 1.5114 l 1.7913,5.3738 c 0.1679,0.5038 0.2798,0.83966 0.3358,1.11955 0.112,-0.27989 0.2239,-0.67173 0.4478,-1.2315 l 1.7913,-5.26185 h 1.3435 v 7.55691 h -0.9517 v -6.32541 l -2.1831,6.32541 h -0.9516 l -2.1831,-6.43737 v 6.43737 h -0.9516"
       class="ps04 ps22"
       id="path482"
       style="font-size:7.5px;font-family:fnt1;letter-spacing:0.075px;word-spacing:0;fill:#221f1f;fill-rule:nonzero;stroke:none" />
    <path
       id="path17"
       d="m 1033.5988,189.07755 c 0.1581,-2.70284 0.2091,-5.92466 0.1505,-9.66033 -0.2092,-3.64061 -1.1755,-7.20414 -2.8993,-10.69316 -1.7134,-3.64061 -4.7171,-6.61322 -9.0033,-8.92552 -4.3832,-2.30718 -10.5765,-3.51215 -18.5804,-3.61235 h -41.69463 l -28.59104,107.82825 h 18.73093 l 10.8724,-41.37755 h 31.05672 c 9.38332,-0.10019 16.76762,-1.87297 22.16042,-5.31061 5.5178,-3.29375 9.5108,-7.05512 11.9815,-11.2815 2.5702,-4.42679 4.1893,-8.31148 4.8599,-11.65406 0.6121,-3.12675 0.9946,-4.92522 0.9946,-5.31317 z m -17.9507,-2.7311 c -0.1454,2.36113 -0.5432,4.75051 -1.206,7.19386 -0.8007,2.40994 -2.0476,4.676 -3.7252,6.79562 -1.5351,2.01685 -3.705,3.6175 -6.5098,4.79934 -2.7691,1.42849 -6.18074,2.14275 -10.23495,2.14275 h -27.44107 l 9.21245,-35.66871 h 23.53989 c 3.77108,0 6.62948,0.51385 8.92438,1.33087 2.2514,1.02769 3.8247,2.05539 5.0996,3.62005 1.1347,1.54153 1.7849,3.08309 2.2947,4.88155 0.051,1.60063 0.1786,3.3991 -0.075,4.90467 z"
       style="fill:#007cc2;fill-opacity:1;stroke-width:2.55949" />
    <polygon
       transform="matrix(2.5498131,0,0,2.5692358,365.0888,41.734437)"
       id="polygon19"
       points="261.3,86.5 267.8,86.5 278.7,44.5 272.3,44.5 "
       style="fill:#007cc2;fill-opacity:1" />
    <path
       id="path21"
       d="m 1136.9937,252.55052 c -2.4018,0 -3.4831,-1.15874 -3.2433,-3.4762 0.2243,-2.21724 0.8466,-4.78133 1.8614,-7.68971 l 7.1318,-27.65526 c 1.2646,-4.71967 1.9913,-8.65317 2.18,-11.79791 0.084,-1.47731 0.051,-3.22696 -0.1147,-5.24639 -0.3035,-2.01942 -1.3208,-4.03883 -3.042,-6.05825 -1.484,-2.02199 -4.1281,-3.64832 -7.9299,-4.88156 -1.9913,-0.68855 -4.304,-1.18183 -6.933,-1.4773 -2.5803,-0.29547 -5.6172,-0.44447 -9.1129,-0.44447 -8.9754,-0.0975 -16.7192,1.75476 -23.2263,5.55212 -6.5198,3.94891 -11.0815,10.73426 -13.6848,20.35604 h 15.7068 c 0.8057,-2.42535 1.8563,-4.50642 3.1414,-6.23809 1.2289,-1.53641 2.7003,-2.7491 4.4112,-3.64061 3.4116,-1.63662 7.3893,-2.45107 11.9434,-2.45107 3.6002,0 6.6294,0.51386 8.9242,1.79848 2.2412,1.28462 3.3149,3.85386 3.0598,7.64861 -0.1734,2.92121 -0.9766,5.29776 -2.4146,7.13219 -1.5733,1.83187 -3.8835,2.8981 -6.933,3.08308 -5.4286,0.49329 -10.9668,0.96604 -16.6299,1.41053 -8.5366,0.29545 -15.9822,2.45103 -22.3211,6.46932 -3.0571,2.00915 -5.5074,4.65545 -7.3613,7.96463 -1.9073,3.42993 -3.052,7.54842 -3.4321,12.35032 -0.3084,6.68 1.785,11.81849 6.1197,15.36145 4.3218,3.59694 9.6893,5.39541 15.8088,5.39541 4.7758,0 9.3884,-0.85813 13.8353,-2.58466 4.5411,-1.61605 8.5597,-4.0748 12.0657,-7.37113 0.01,3.08308 0.7649,5.3954 2.5498,7.19386 1.739,1.79846 4.0798,2.82616 6.8846,2.87499 4.3524,-0.095 8.6947,-0.80933 13.0294,-2.12735 l 3.3556,-12.34004 c -1.7593,0.49329 -3.6716,0.75023 -5.7116,0.88897 z m -20.9595,-7.96464 c -3.8196,5.21041 -9.7199,7.86443 -17.6931,7.96464 -3.1821,0.10009 -6.0304,-0.64233 -8.547,-2.21726 -2.8582,-1.4285 -4.2225,-4.01572 -4.0924,-7.76166 0.1887,-3.20384 1.3156,-5.7705 3.3759,-7.6923 1.9583,-1.82415 4.3068,-3.08051 7.0578,-3.77163 2.8993,-0.9352 5.8518,-1.50301 8.8504,-1.70083 2.81,-0.19783 5.4542,-0.34428 7.9224,-0.44192 1.9633,-0.29032 3.9292,-0.67827 5.9002,-1.16386 1.8767,-0.43419 3.4219,-1.23579 4.6255,-2.3971 l 0.2677,0.25692 c -1.3004,7.48163 -3.8757,13.90472 -7.7004,18.925 z"
       style="fill:#007cc2;fill-opacity:1;stroke-width:2.55949" />
    <path
       id="path23"
       d="m 1215.222,185.93794 -31.6432,57.08071 h -0.2831 l -4.4621,-57.08071 h -17.4102 l 8.746,75.52526 -7.2619,12.58925 c -1.2315,2.40994 -2.7487,4.12876 -4.5565,5.16417 -1.8971,0.98401 -4.0976,1.47472 -6.6041,1.47472 -2.1163,-0.10019 -4.2122,-0.49071 -6.2955,-1.17927 l -3.8935,14.38772 c 3.3453,0.77077 6.6295,1.28462 9.9443,1.24864 4.6711,0 8.6897,-0.85811 12.0478,-2.5795 3.302,-1.52612 6.1858,-3.58666 8.6515,-6.19186 2.4809,-2.8056 4.786,-5.87583 6.9227,-9.21328 2.0426,-3.44277 4.0925,-6.95491 6.1452,-10.54414 l 47.6891,-80.507 c 0,-0.24408 -17.7212,-0.24408 -17.7212,-0.17471 z"
       style="fill:#007cc2;fill-opacity:1;stroke-width:2.55949" />
    <path
       id="path25"
       d="m 1300.8702,195.84748 c -2.0067,-3.49159 -5.0206,-6.39226 -9.0341,-8.70456 -4.1179,-2.21213 -9.526,-3.31945 -16.2295,-3.31945 -13.4222,0.29545 -23.9554,5.26178 -31.6073,14.89642 -7.8382,9.58838 -12.1373,20.67463 -12.8843,33.26132 -0.4921,10.79079 2.2948,19.01235 7.9044,24.92159 5.6325,6.16617 13.259,8.99233 22.6933,9.21842 18.3561,0 30.9216,-8.66604 37.6837,-26.29099 h -16.4437 c -3.2461,8.38084 -9.5261,12.61238 -18.8356,12.58925 -6.2163,0 -10.6479,-1.69569 -13.2921,-5.09479 -2.6951,-3.35029 -3.8833,-7.68972 -3.5646,-13.01061 0.089,-1.52613 0.283,-3.20128 0.5838,-5.02544 h 55.892 c 0.6782,-2.60776 1.1754,-5.82959 1.4993,-9.66545 0.2397,-4.03371 0.08,-8.11623 -0.4743,-12.24754 -0.4335,-4.03627 -1.8614,-7.89014 -3.9013,-11.52817 z m -11.9841,22.27013 h -39.2186 c 2.1264,-6.26379 5.2092,-11.24554 9.2328,-14.94523 4.123,-3.74852 9.2864,-5.67288 15.4927,-5.77308 5.069,0 8.9243,1.54153 11.4742,4.36513 2.5294,3.08308 3.5696,6.68003 3.3146,11.54356 0.051,1.33602 -0.051,3.13449 -0.3059,4.80962 z"
       style="fill:#007cc2;fill-opacity:1;stroke-width:2.55949" />
    <path
       id="path27"
       d="m 1369.8936,200.56204 4.4316,-16.29923 c -2.5753,-0.2929 -5.2042,-0.43934 -7.8942,-0.43934 -5.1404,0.10019 -9.8907,1.94234 -14.2535,5.65231 -4.4468,3.54042 -8.0141,7.57153 -10.6811,12.0934 l -0.2652,-0.29547 3.9446,-15.21501 h -15.6228 l -20.1945,78.07907 h 16.5381 l 8.9881,-34.68468 c 1.9481,-8.18559 5.2144,-15.11225 9.7913,-20.78254 4.5719,-5.61893 11.0559,-8.48106 19.4526,-8.57869 1.9377,-0.0924 3.7991,0.16443 5.839,0.47018 z"
       style="fill:#007cc2;fill-opacity:1;stroke-width:2.55949" />
  </g>
</svg>
